<?xml version="1.0" encoding="UTF-8" standalone="no"?>
<svg
   xmlns:dc="http://purl.org/dc/elements/1.1/"
   xmlns:cc="http://creativecommons.org/ns#"
   xmlns:rdf="http://www.w3.org/1999/02/22-rdf-syntax-ns#"
   xmlns:svg="http://www.w3.org/2000/svg"
   xmlns="http://www.w3.org/2000/svg"
   xmlns:sodipodi="http://sodipodi.sourceforge.net/DTD/sodipodi-0.dtd"
   xmlns:inkscape="http://www.inkscape.org/namespaces/inkscape"
   height="512"
   viewBox="0 0 64 64"
   width="512"
   version="1.1"
   id="svg5151"
   sodipodi:docname="i_padlock_open.svg"
   inkscape:version="0.92.4 (5da689c313, 2019-01-14)">
  <metadata
     id="metadata5157">
    <rdf:RDF>
      <cc:Work
         rdf:about="">
        <dc:format>image/svg+xml</dc:format>
        <dc:type
           rdf:resource="http://purl.org/dc/dcmitype/StillImage" />
        <dc:title></dc:title>
      </cc:Work>
    </rdf:RDF>
  </metadata>
  <defs
     id="defs5155" />
  <sodipodi:namedview
     pagecolor="#ffffff"
     bordercolor="#666666"
     borderopacity="1"
     objecttolerance="10"
     gridtolerance="10"
     guidetolerance="10"
     inkscape:pageopacity="0"
     inkscape:pageshadow="2"
     inkscape:window-width="1278"
     inkscape:window-height="1408"
     id="namedview5153"
     showgrid="false"
     inkscape:zoom="0.921875"
     inkscape:cx="370.41398"
     inkscape:cy="220.58121"
     inkscape:window-x="1273"
     inkscape:window-y="0"
     inkscape:window-maximized="0"
     inkscape:current-layer="line" />
  <g
     id="line">
    <path
       d="m41.758 13.03-16 4a1 1 0 0 0 -.758.97v40a1 1 0 0 0 .758.97l16 4a1 1 0 0 0 1.242-.97v-48a1 1 0 0 0 -1.242-.97zm-4.758 27.97c-1.159 0-2-1.262-2-3s.841-3 2-3 2 1.262 2 3-.841 3-2 3z"
       fill="#c4a2fc"
       id="path5140"
       style="fill:#59b9fd;fill-opacity:1" />
    <path
       d="m51 17h-6v42h6a1 1 0 0 0 1-1v-40a1 1 0 0 0 -1-1z"
       fill="#c4a2fc"
       id="path5142"
       style="fill:#59b9fd;fill-opacity:1" />
    <g
       fill="#151a6a"
       id="g5148"
       style="fill:#0e314b;fill-opacity:1">
      <path
         d="m45 25h-29v-12a10 10 0 0 1 20 0 1 1 0 0 0 2 0 12 12 0 0 0 -24 0v12h-7a3 3 0 0 0 -3 3v20a3 3 0 0 0 3 3h38a3 3 0 0 0 3-3v-20a3 3 0 0 0 -3-3zm1 23a1 1 0 0 1 -1 1h-38a1 1 0 0 1 -1-1v-20a1 1 0 0 1 1-1h38a1 1 0 0 1 1 1z"
         id="path5144"
         style="fill:#0e314b;fill-opacity:1" />
      <path
         d="m26 29a5.992 5.992 0 0 0 -4 10.46v3.54a4 4 0 0 0 8 0v-3.54a5.992 5.992 0 0 0 -4-10.46zm2 14a2 2 0 0 1 -4 0v-2.35a5.889 5.889 0 0 0 4 0zm-2-4a4 4 0 1 1 4-4 4 4 0 0 1 -4 4z"
         id="path5146"
         style="fill:#0e314b;fill-opacity:1" />
    </g>
  </g>
</svg>
