<?xml version="1.0" encoding="UTF-8" standalone="no"?>
<svg
   xmlns:dc="http://purl.org/dc/elements/1.1/"
   xmlns:cc="http://creativecommons.org/ns#"
   xmlns:rdf="http://www.w3.org/1999/02/22-rdf-syntax-ns#"
   xmlns:svg="http://www.w3.org/2000/svg"
   xmlns="http://www.w3.org/2000/svg"
   xmlns:sodipodi="http://sodipodi.sourceforge.net/DTD/sodipodi-0.dtd"
   xmlns:inkscape="http://www.inkscape.org/namespaces/inkscape"
   id="Line"
   height="512"
   viewBox="0 0 64 64"
   width="512"
   version="1.1"
   sodipodi:docname="i_padlock_close.svg"
   inkscape:version="0.92.4 (5da689c313, 2019-01-14)">
  <metadata
     id="metadata873">
    <rdf:RDF>
      <cc:Work
         rdf:about="">
        <dc:format>image/svg+xml</dc:format>
        <dc:type
           rdf:resource="http://purl.org/dc/dcmitype/StillImage" />
        <dc:title></dc:title>
      </cc:Work>
    </rdf:RDF>
  </metadata>
  <defs
     id="defs871" />
  <sodipodi:namedview
     pagecolor="#ffffff"
     bordercolor="#666666"
     borderopacity="1"
     objecttolerance="10"
     gridtolerance="10"
     guidetolerance="10"
     inkscape:pageopacity="0"
     inkscape:pageshadow="2"
     inkscape:window-width="1278"
     inkscape:window-height="1408"
     id="namedview869"
     showgrid="false"
     inkscape:zoom="0.65186406"
     inkscape:cx="83.595639"
     inkscape:cy="141.41806"
     inkscape:window-x="1273"
     inkscape:window-y="0"
     inkscape:window-maximized="0"
     inkscape:current-layer="Line" />
  <circle
     cx="32"
     cy="41"
     fill="#c4a2fc"
     r="4.5"
     id="circle858"
     style="fill:#59b9fd;fill-opacity:1" />
  <path
     d="m38.5 19a22 22 0 1 0 22 22 22.025 22.025 0 0 0 -22-22zm-11.313 10.687a16 16 0 0 1 22.626 0 1 1 0 0 1 -1.413 1.413 14 14 0 0 0 -19.8 0 1 1 0 0 1 -1.414-1.414zm22.626 22.626a16 16 0 0 1 -22.626 0 1 1 0 1 1 1.413-1.413 14 14 0 0 0 19.8 0 1 1 0 0 1 1.414 1.414zm1.687-5.313a1 1 0 0 1 -2 0v-4a1 1 0 0 0 -1-1h-3v5a1 1 0 0 1 -2 0v-5h-5.085a6.5 6.5 0 1 1 0-2h10.085a3 3 0 0 1 3 3z"
     fill="#c4a2fc"
     id="path860"
     style="fill:#59b9fd;fill-opacity:1" />
  <g
     fill="#151a6a"
     id="g866"
     style="fill:#0e314b;fill-opacity:1">
    <path
       d="m32.5 14a13 13 0 0 0 -26 0v12.708a15.991 15.991 0 1 0 29 9.292 15.9 15.9 0 0 0 -3-9.292zm-13-11a11.013 11.013 0 0 1 11 11v10.411a15.921 15.921 0 0 0 -22 0v-10.411a11.013 11.013 0 0 1 11-11zm0 47a14 14 0 1 1 14-14 14.015 14.015 0 0 1 -14 14z"
       id="path862"
       style="fill:#0e314b;fill-opacity:1" />
    <path
       d="m22.966 29.229a5.493 5.493 0 1 0 -6.466 8.861v2.91a3 3 0 0 0 6 0v-2.91a5.481 5.481 0 0 0 .466-8.861zm-1.913 7.388a1 1 0 0 0 -.553.9v3.483a1 1 0 0 1 -2 0v-3.488a1 1 0 0 0 -.553-.9 3.5 3.5 0 1 1 3.106 0z"
       id="path864"
       style="fill:#0e314b;fill-opacity:1" />
  </g>
</svg>
