<?xml version="1.0" encoding="UTF-8" standalone="no"?>
<svg
   xmlns:dc="http://purl.org/dc/elements/1.1/"
   xmlns:cc="http://creativecommons.org/ns#"
   xmlns:rdf="http://www.w3.org/1999/02/22-rdf-syntax-ns#"
   xmlns:svg="http://www.w3.org/2000/svg"
   xmlns="http://www.w3.org/2000/svg"
   xmlns:sodipodi="http://sodipodi.sourceforge.net/DTD/sodipodi-0.dtd"
   xmlns:inkscape="http://www.inkscape.org/namespaces/inkscape"
   id="line"
   height="512"
   viewBox="0 0 64 64"
   width="512"
   version="1.1"
   sodipodi:docname="i_router.svg"
   inkscape:version="0.92.4 (5da689c313, 2019-01-14)">
  <metadata
     id="metadata5770">
    <rdf:RDF>
      <cc:Work
         rdf:about="">
        <dc:format>image/svg+xml</dc:format>
        <dc:type
           rdf:resource="http://purl.org/dc/dcmitype/StillImage" />
        <dc:title></dc:title>
      </cc:Work>
    </rdf:RDF>
  </metadata>
  <defs
     id="defs5768" />
  <sodipodi:namedview
     pagecolor="#ffffff"
     bordercolor="#666666"
     borderopacity="1"
     objecttolerance="10"
     gridtolerance="10"
     guidetolerance="10"
     inkscape:pageopacity="0"
     inkscape:pageshadow="2"
     inkscape:window-width="1278"
     inkscape:window-height="1408"
     id="namedview5766"
     showgrid="false"
     inkscape:zoom="1.3037281"
     inkscape:cx="231.71173"
     inkscape:cy="343.72827"
     inkscape:window-x="1273"
     inkscape:window-y="0"
     inkscape:window-maximized="0"
     inkscape:current-layer="line" />
  <path
     d="m46.95 31.678a1 1 0 0 0 1.414 0 13.016 13.016 0 0 0 0-18.385 1 1 0 1 0 -1.414 1.414 11.015 11.015 0 0 1 0 15.557 1 1 0 0 0 0 1.414z"
     fill="#c4a2fc"
     id="path5737"
     style="fill:#59b9fd;fill-opacity:1" />
  <path
     d="m41.293 26.021a1 1 0 0 0 1.414 0 5 5 0 0 0 0-7.071 1 1 0 0 0 -1.414 1.414 3 3 0 0 1 0 4.242 1 1 0 0 0 0 1.415z"
     fill="#c4a2fc"
     id="path5739"
     style="fill:#59b9fd;fill-opacity:1" />
  <path
     d="m21.05 31.678a1 1 0 0 0 0-1.414 11.013 11.013 0 0 1 0-15.557 1 1 0 0 0 -1.414-1.414 13.014 13.014 0 0 0 0 18.385 1 1 0 0 0 1.414 0z"
     fill="#c4a2fc"
     id="path5741"
     style="fill:#59b9fd;fill-opacity:1" />
  <path
     d="m26.707 26.021a1 1 0 0 0 0-1.415 3 3 0 0 1 0-4.242 1 1 0 0 0 -1.414-1.414 5 5 0 0 0 0 7.071 1 1 0 0 0 1.414 0z"
     fill="#c4a2fc"
     id="path5743"
     style="fill:#59b9fd;fill-opacity:1" />
  <path
     d="m56 45h-44a3 3 0 0 0 -3 3v8a3 3 0 0 0 3 3h1v3a1 1 0 0 0 1 1h8a1 1 0 0 0 1-1v-3h22v3a1 1 0 0 0 1 1h8a1 1 0 0 0 1-1v-3h1a3 3 0 0 0 3-3v-8a3 3 0 0 0 -3-3zm-8 4a3 3 0 1 1 -3 3 3 3 0 0 1 3-3zm-21 5a1 1 0 0 1 -1 1h-8a1 1 0 0 1 -1-1v-4a1 1 0 0 1 1-1h8a1 1 0 0 1 1 1zm5 1a3 3 0 1 1 3-3 3 3 0 0 1 -3 3zm8 0a3 3 0 1 1 3-3 3 3 0 0 1 -3 3z"
     fill="#c4a2fc"
     id="path5745"
     style="fill:#59b9fd;fill-opacity:1" />
  <path
     d="m37.15 21.917a3.159 3.159 0 0 0 -6.3 0l-1.622 21.083h9.544z"
     fill="#c4a2fc"
     id="path5747"
     style="fill:#59b9fd;fill-opacity:1" />
  <g
     fill="#151a6a"
     id="g5763"
     style="fill:#0e314b;fill-opacity:1">
    <path
       d="m27.765 20.778a1 1 0 0 0 1.414 1.414 13.015 13.015 0 0 0 0-18.384 1 1 0 0 0 -1.414 1.414 11.012 11.012 0 0 1 0 15.556z"
       id="path5749"
       style="fill:#0e314b;fill-opacity:1" />
    <path
       d="m24.936 17.95a1 1 0 0 0 1.414 1.414 9.01 9.01 0 0 0 0-12.728 1 1 0 1 0 -1.414 1.414 7.007 7.007 0 0 1 0 9.9z"
       id="path5751"
       style="fill:#0e314b;fill-opacity:1" />
    <path
       d="m32.31 1.312a1 1 0 1 0 -1.451 1.376 14.981 14.981 0 0 1 0 20.624 1 1 0 1 0 1.451 1.376 16.982 16.982 0 0 0 0-23.376z"
       id="path5753"
       style="fill:#0e314b;fill-opacity:1" />
    <path
       d="m10.794 22.192a1 1 0 1 0 1.414-1.414 11.006 11.006 0 0 1 0-15.556 1 1 0 1 0 -1.414-1.414 13.005 13.005 0 0 0 0 18.384z"
       id="path5755"
       style="fill:#0e314b;fill-opacity:1" />
    <path
       d="m13.623 19.364a1 1 0 0 0 1.414-1.414 7.007 7.007 0 0 1 0-9.9 1 1 0 1 0 -1.414-1.414 9.009 9.009 0 0 0 0 12.728z"
       id="path5757"
       style="fill:#0e314b;fill-opacity:1" />
    <path
       d="m9.115 2.688a1 1 0 1 0 -1.451-1.376 16.976 16.976 0 0 0 0 23.376 1 1 0 1 0 1.451-1.376 14.98 14.98 0 0 1 0-20.624z"
       id="path5759"
       style="fill:#0e314b;fill-opacity:1" />
    <path
       d="m21.246 17.819a5 5 0 1 0 -2.519 0l-8.7 31.918a1 1 0 1 0 1.929.526l1.976-7.263h12.109l1.981 7.263a1 1 0 1 0 1.929-.526zm-4.26-4.819a3 3 0 1 1 3 3 3 3 0 0 1 -3-3zm3 7.8 3.328 12.2h-6.655zm-5.508 20.2 1.636-6h7.745l1.641 6z"
       id="path5761"
       style="fill:#0e314b;fill-opacity:1" />
  </g>
</svg>
