<?xml version="1.0" encoding="UTF-8" standalone="no"?>
<svg
   xmlns:dc="http://purl.org/dc/elements/1.1/"
   xmlns:cc="http://creativecommons.org/ns#"
   xmlns:rdf="http://www.w3.org/1999/02/22-rdf-syntax-ns#"
   xmlns:svg="http://www.w3.org/2000/svg"
   xmlns="http://www.w3.org/2000/svg"
   xmlns:sodipodi="http://sodipodi.sourceforge.net/DTD/sodipodi-0.dtd"
   xmlns:inkscape="http://www.inkscape.org/namespaces/inkscape"
   id="Line"
   height="512"
   viewBox="0 0 64 64"
   width="512"
   version="1.1"
   sodipodi:docname="i_server.svg"
   inkscape:version="0.92.4 (5da689c313, 2019-01-14)">
  <metadata
     id="metadata6371">
    <rdf:RDF>
      <cc:Work
         rdf:about="">
        <dc:format>image/svg+xml</dc:format>
        <dc:type
           rdf:resource="http://purl.org/dc/dcmitype/StillImage" />
        <dc:title></dc:title>
      </cc:Work>
    </rdf:RDF>
  </metadata>
  <defs
     id="defs6369" />
  <sodipodi:namedview
     pagecolor="#ffffff"
     bordercolor="#666666"
     borderopacity="1"
     objecttolerance="10"
     gridtolerance="10"
     guidetolerance="10"
     inkscape:pageopacity="0"
     inkscape:pageshadow="2"
     inkscape:window-width="1278"
     inkscape:window-height="1408"
     id="namedview6367"
     showgrid="false"
     inkscape:zoom="0.921875"
     inkscape:cx="401.36407"
     inkscape:cy="168.67429"
     inkscape:window-x="1273"
     inkscape:window-y="0"
     inkscape:window-maximized="0"
     inkscape:current-layer="Line" />
  <path
     d="m52 37.641a13 13 0 0 0 -25.99 0 12.993 12.993 0 0 0 3.99 25.359h18a12.993 12.993 0 0 0 4-25.359zm-5.924 16.43a9.982 9.982 0 0 1 -17.057-6.671l-1.312 1.312a1 1 0 0 1 -1.414-1.414l3-3a1 1 0 0 1 1.414 0l3 3a1 1 0 0 1 -1.414 1.414l-1.272-1.272a7.955 7.955 0 0 0 4.917 6.956 8 8 0 0 0 8.719-1.734 1 1 0 0 1 1.414 1.414zm5.636-7.364-3 3a1 1 0 0 1 -1.414 0l-3-3a1 1 0 0 1 1.414-1.414l1.272 1.272a7.955 7.955 0 0 0 -4.917-6.956 8 8 0 0 0 -8.719 1.734 1 1 0 0 1 -1.414-1.414 9.982 9.982 0 0 1 17.052 6.676l1.312-1.312a1 1 0 0 1 1.414 1.414z"
     fill="#c4a2fc"
     id="path6344"
     style="fill:#59b9fd;fill-opacity:1" />
  <g
     fill="#151a6a"
     id="g6364"
     style="fill:#0e314b;fill-opacity:1">
    <path
       d="m6 51h32a3 3 0 0 0 3-3v-44a3 3 0 0 0 -3-3h-32a3 3 0 0 0 -3 3v44a3 3 0 0 0 3 3zm33-14h-34v-10h34zm0-12h-34v-10h34zm-1 24h-32a1 1 0 0 1 -1-1v-9h34v9a1 1 0 0 1 -1 1zm-32-46h32a1 1 0 0 1 1 1v9h-34v-9a1 1 0 0 1 1-1z"
       id="path6346"
       style="fill:#0e314b;fill-opacity:1" />
    <path
       d="m10 9h3a1 1 0 0 0 0-2h-3a1 1 0 0 0 0 2z"
       id="path6348"
       style="fill:#0e314b;fill-opacity:1" />
    <path
       d="m19 9h15a1 1 0 0 0 0-2h-15a1 1 0 0 0 0 2z"
       id="path6350"
       style="fill:#0e314b;fill-opacity:1" />
    <path
       d="m10 21h3a1 1 0 0 0 0-2h-3a1 1 0 0 0 0 2z"
       id="path6352"
       style="fill:#0e314b;fill-opacity:1" />
    <path
       d="m19 21h15a1 1 0 0 0 0-2h-15a1 1 0 0 0 0 2z"
       id="path6354"
       style="fill:#0e314b;fill-opacity:1" />
    <path
       d="m10 33h3a1 1 0 0 0 0-2h-3a1 1 0 0 0 0 2z"
       id="path6356"
       style="fill:#0e314b;fill-opacity:1" />
    <path
       d="m19 33h15a1 1 0 0 0 0-2h-15a1 1 0 0 0 0 2z"
       id="path6358"
       style="fill:#0e314b;fill-opacity:1" />
    <path
       d="m13 43h-3a1 1 0 0 0 0 2h3a1 1 0 0 0 0-2z"
       id="path6360"
       style="fill:#0e314b;fill-opacity:1" />
    <path
       d="m34 43h-15a1 1 0 0 0 0 2h15a1 1 0 0 0 0-2z"
       id="path6362"
       style="fill:#0e314b;fill-opacity:1" />
  </g>
</svg>
