<?xml version="1.0" encoding="UTF-8" standalone="no"?>
<svg
   xmlns:dc="http://purl.org/dc/elements/1.1/"
   xmlns:cc="http://creativecommons.org/ns#"
   xmlns:rdf="http://www.w3.org/1999/02/22-rdf-syntax-ns#"
   xmlns:svg="http://www.w3.org/2000/svg"
   xmlns="http://www.w3.org/2000/svg"
   xmlns:sodipodi="http://sodipodi.sourceforge.net/DTD/sodipodi-0.dtd"
   xmlns:inkscape="http://www.inkscape.org/namespaces/inkscape"
   id="Icons"
   height="512"
   viewBox="0 0 64 64"
   width="512"
   version="1.1"
   sodipodi:docname="i_video.svg"
   inkscape:version="0.92.4 (5da689c313, 2019-01-14)">
  <metadata
     id="metadata6968">
    <rdf:RDF>
      <cc:Work
         rdf:about="">
        <dc:format>image/svg+xml</dc:format>
        <dc:type
           rdf:resource="http://purl.org/dc/dcmitype/StillImage" />
        <dc:title></dc:title>
      </cc:Work>
    </rdf:RDF>
  </metadata>
  <defs
     id="defs6966" />
  <sodipodi:namedview
     pagecolor="#ffffff"
     bordercolor="#666666"
     borderopacity="1"
     objecttolerance="10"
     gridtolerance="10"
     guidetolerance="10"
     inkscape:pageopacity="0"
     inkscape:pageshadow="2"
     inkscape:window-width="1278"
     inkscape:window-height="1408"
     id="namedview6964"
     showgrid="false"
     inkscape:zoom="0.921875"
     inkscape:cx="317.00415"
     inkscape:cy="225.49458"
     inkscape:window-x="1273"
     inkscape:window-y="0"
     inkscape:window-maximized="0"
     inkscape:current-layer="Icons" />
  <path
     d="m36.94 47.27 8.26-4.77-8.26-4.77z"
     fill="#c4a2fc"
     id="path6943"
     style="fill:#59b9fd;fill-opacity:1" />
  <path
     d="m60 28h-36a3 3 0 0 0 -3 3v23a3 3 0 0 0 3 3h36a3 3 0 0 0 3-3v-23a3 3 0 0 0 -3-3zm-12.3 15.37-11.26 6.5a1 1 0 0 1 -1.5-.87v-13a1 1 0 0 1 1.5-.87l11.26 6.5a1 1 0 0 1 0 1.74z"
     fill="#c4a2fc"
     id="path6945"
     style="fill:#59b9fd;fill-opacity:1" />
  <path
     d="m62 60h-11a1 1 0 0 0 -2 0h-27a1 1 0 0 0 0 2h27a1 1 0 0 0 2 0h11a1 1 0 0 0 0-2z"
     fill="#c4a2fc"
     id="path6947"
     style="fill:#59b9fd;fill-opacity:1" />
  <g
     fill="#151a6a"
     id="g6961"
     style="fill:#0e314b;fill-opacity:1">
    <path
       d="m48 1h-44a3 3 0 0 0 -3 3v36a3 3 0 0 0 3 3h44a3 3 0 0 0 3-3v-36a3 3 0 0 0 -3-3zm-45 7.93h46v24.07h-46zm1-5.93h44a1 1 0 0 1 1 1v2.93h-46v-2.93a1 1 0 0 1 1-1zm44 38h-44a1 1 0 0 1 -1-1v-5h46v5a1 1 0 0 1 -1 1z"
       id="path6949"
       style="fill:#0e314b;fill-opacity:1" />
    <circle
       cx="38"
       cy="5"
       r="1"
       id="circle6951"
       style="fill:#0e314b;fill-opacity:1" />
    <circle
       cx="42"
       cy="5"
       r="1"
       id="circle6953"
       style="fill:#0e314b;fill-opacity:1" />
    <circle
       cx="46"
       cy="5"
       r="1"
       id="circle6955"
       style="fill:#0e314b;fill-opacity:1" />
    <path
       d="m46 37h-11.06a1 1 0 0 0 -2 0h-26.94a1 1 0 0 0 0 2h26.94a1 1 0 0 0 2 0h11.06a1 1 0 0 0 0-2z"
       id="path6957"
       style="fill:#0e314b;fill-opacity:1" />
    <path
       d="m31.5 19.27-10-5.77a2 2 0 0 0 -3 1.73v11.54a2 2 0 0 0 3 1.73l10-5.77a2 2 0 0 0 0-3.46zm-11 7.5v-11.54l10 5.77z"
       id="path6959"
       style="fill:#0e314b;fill-opacity:1" />
  </g>
</svg>
